<svg version="1.0" xmlns="http://www.w3.org/2000/svg" width="960" height="758.667" viewBox="0 0 720 569"><path d="M255 31c-3.6.5-10.5 2-15.5 3.4-11.3 3.3-35.1 15.1-37.8 18.8-1.9 2.5-1.9 2.9-.4 5.1.9 1.3 3.7 3.7 6.4 5.2 8.1 4.7 18.2 12.8 30.3 23.9 16.5 15.3 32.4 25.4 46.8 29.7 2.3.6 4.2 1.5 4.2 1.8 0 .3-1.6 1.7-3.5 3-8.3 5.7-22.5 23.2-28.7 35.6-14.3 28.5-14.2 66.8.4 96 12.9 25.8 38.7 47.7 66.2 56 17.3 5.2 31 6.5 44.3 4.1l7.1-1.3 3.6 4.8c7.2 9.6 18.8 15.2 31.2 14.8l7.3-.2 4.4 4.6c2.5 2.5 6.9 5.8 9.8 7.3 4.5 2.3 6.6 2.8 12.9 2.7 8.9 0 13.3-1.7 19.7-7.6 7-6.5 9.7-12.6 9.8-22.2 0-4.4-.3-8.9-.8-10.1-.6-1.7.2-2.7 4.8-5.9 6-4.1 11.3-10.6 14.7-18.2 1.9-3.9 2.3-6.6 2.3-14.8 0-8.8-.3-10.7-2.7-15.8-4.6-9.8-17.9-21.7-24.4-21.7-1.2 0-1.5-.6-1-2.3.4-1.2 1.2-7 1.8-12.9 1.3-12.2.3-24.7-3.2-38.2-2.2-8.7-9.1-23.9-14.1-31.3-4.7-6.9-17.4-19.8-24.5-24.9-13.6-9.7-33.5-16.8-49.4-17.7-8.7-.5-8.6-.1-4-11 6.2-14.8 16.7-29 26.7-35.8 5-3.5 6.2-6.8 3.9-10.5-4.4-6.5-11.1-5.1-20.7 4.5-7.8 7.8-14.5 17.8-20.4 30.3l-4.2 9L356 83c-5.2-13.9-19.5-30.5-33.1-38.5-8.2-4.8-19.2-9.1-29.3-11.5-9.4-2.3-29-3.3-38.6-2zm137.8 83.6c33.2 9.6 57 35.8 64.3 70.9 2.1 10.2 2.4 23.9.8 34.8l-1.1 7.4-6 .7c-11.8 1.2-25.8 10.6-30.4 20.4l-1.9 3.9-6.7-.5c-13.2-.9-27.5 5.9-34.9 16.8-5.7 8.2-7.3 14.4-6.7 25.6.6 11.3 1.3 10.8-15.2 10.7-38-.4-73.9-23.6-90.5-58.5-17.8-37.5-8.8-84.1 21.7-112.3 3.4-3.2 8.9-7.5 12.1-9.6 5.6-3.6 6.1-3.7 15.1-3.8 9.3-.1 18.4-1.5 28.1-4.5 2.8-.9 5.1-1.6 5.2-1.6.2 0 1.5 4.6 2.8 10.1l.7 2.7-10.5-.5c-7-.4-10.6-.2-11.1.5-.8 1.4 1.7 2.7 10.7 5.8 9.2 3.1 18.5 4 27.4 2.5 7.3-1.3 19.3-6.2 19.3-8 0-1.7-4.8-2.4-12.1-1.8l-6.9.6v-6.4c0-9.9-.1-9.8 9.4-9 4.5.4 11.8 1.8 16.4 3.1zM466 239.5c13.7 4.8 22.1 21.5 18.1 36.2-1.6 5.7-6.8 13.2-11.7 16.6l-4.1 2.9-4.3-3c-3.9-2.9-7.1-4.3-13.1-5.6-2.1-.5-2.8-1.4-3.4-4.3-1.5-8.4-9-19-16.3-23.5-2.1-1.2-3.9-2.3-4.1-2.4-.8-.6 4.2-7.5 7.6-10.5 8.5-7.4 21.1-10 31.3-6.4zm-44.4 24.9c19 8.7 23.7 33.9 9 48.9-6.3 6.3-12.9 9.1-21.6 9.2-6.3 0-8.5-.5-13.3-2.9-18.7-9.1-22.3-35.8-6.8-49.9 9.8-8.8 20.9-10.6 32.7-5.3zm31.7 33c7.9 3.2 13.1 14.7 10.8 23.3-3.5 12.6-15.9 19.3-27.5 14.9-4-1.5-9.6-5.9-9.6-7.5 0-.4 1.6-1.5 3.5-2.5 7.9-4.3 16.3-16.3 18-25.9.8-4.2.6-4.1 4.8-2.3z"/></svg>