<?xml version="1.0" standalone="no"?>
<!DOCTYPE svg PUBLIC "-//W3C//DTD SVG 20010904//EN"
 "http://www.w3.org/TR/2001/REC-SVG-20010904/DTD/svg10.dtd">
<svg version="1.0" xmlns="http://www.w3.org/2000/svg"
 width="720.000000pt" height="569.000000pt" viewBox="0 0 720.000000 569.000000"
 preserveAspectRatio="xMidYMid meet">

<g transform="translate(0.000000,569.000000) scale(0.100000,-0.100000)"
fill="#000000" stroke="none">
<path d="M2550 5380 c-36 -5 -105 -20 -155 -34 -113 -33 -351 -151 -378 -188
-19 -25 -19 -29 -4 -51 9 -13 37 -37 64 -52 81 -47 182 -128 303 -239 165
-153 324 -254 468 -297 23 -6 42 -15 42 -18 0 -3 -16 -17 -35 -30 -83 -57
-225 -232 -287 -356 -143 -285 -142 -668 4 -960 129 -258 387 -477 662 -560
173 -52 310 -65 443 -41 l71 13 36 -48 c72 -96 188 -152 312 -148 l73 2 44
-46 c25 -25 69 -58 98 -73 45 -23 66 -28 129 -27 89 0 133 17 197 76 70 65 97
126 98 222 0 44 -3 89 -8 101 -6 17 2 27 48 59 60 41 113 106 147 182 19 39
23 66 23 148 0 88 -3 107 -27 158 -46 98 -179 217 -244 217 -12 0 -15 6 -10
23 4 12 12 70 18 129 13 122 3 247 -32 382 -22 87 -91 239 -141 313 -47 69
-174 198 -245 249 -136 97 -335 168 -494 177 -87 5 -86 1 -40 110 62 148 167
290 267 358 50 35 62 68 39 105 -44 65 -111 51 -207 -45 -78 -78 -145 -178
-204 -303 l-42 -90 -23 62 c-52 139 -195 305 -331 385 -82 48 -192 91 -293
115 -94 23 -290 33 -386 20z m1378 -836 c332 -96 570 -358 643 -709 21 -102
24 -239 8 -348 l-11 -74 -60 -7 c-118 -12 -258 -106 -304 -204 l-19 -39 -67 5
c-132 9 -275 -59 -349 -168 -57 -82 -73 -144 -67 -256 6 -113 13 -108 -152
-107 -380 4 -739 236 -905 585 -178 375 -88 841 217 1123 34 32 89 75 121 96
56 36 61 37 151 38 93 1 184 15 281 45 28 9 51 16 52 16 2 0 15 -46 28 -101
l7 -27 -105 5 c-70 4 -106 2 -111 -5 -8 -14 17 -27 107 -58 92 -31 185 -40
274 -25 73 13 193 62 193 80 0 17 -48 24 -121 18 l-69 -6 0 64 c0 99 -1 98 94
90 45 -4 118 -18 164 -31z m732 -1249 c137 -48 221 -215 181 -362 -16 -57 -68
-132 -117 -166 l-41 -29 -43 30 c-39 29 -71 43 -131 56 -21 5 -28 14 -34 43
-15 84 -90 190 -163 235 -21 12 -39 23 -41 24 -8 6 42 75 76 105 85 74 211
100 313 64z m-444 -249 c190 -87 237 -339 90 -489 -63 -63 -129 -91 -216 -92
-63 0 -85 5 -133 29 -187 91 -223 358 -68 499 98 88 209 106 327 53z m317
-330 c79 -32 131 -147 108 -233 -35 -126 -159 -193 -275 -149 -40 15 -96 59
-96 75 0 4 16 15 35 25 79 43 163 163 180 259 8 42 6 41 48 23z"/>
</g>
</svg>
